<svg width="56" height="76" viewBox="0 0 56 76" fill="none" xmlns="http://www.w3.org/2000/svg">
<path fill-rule="evenodd" clip-rule="evenodd" d="M18.5141 55.2684C18.5141 55.2684 15.7856 56.8571 20.4581 57.3932C26.1195 58.0398 29.0125 57.9467 35.2496 56.7673C35.2496 56.7673 36.8927 57.7956 39.1834 58.6861C25.1971 64.6806 7.52946 58.3388 18.5141 55.2684Z" fill="#0074BD"/>
<path fill-rule="evenodd" clip-rule="evenodd" d="M16.8041 47.4447C16.8041 47.4447 13.7434 49.7116 18.4194 50.1951C24.4676 50.8197 29.2422 50.8709 37.5089 49.2794C37.5089 49.2794 38.6496 50.4385 40.446 51.072C23.5383 56.0194 4.70663 51.4612 16.8041 47.4447Z" fill="#0074BD"/>
<path fill-rule="evenodd" clip-rule="evenodd" d="M31.2111 34.1713C34.6592 38.1418 30.307 41.7119 30.307 41.7119C30.307 41.7119 39.057 37.194 35.0394 31.5338C31.2857 26.2577 28.4079 23.6368 43.9879 14.5981C43.9879 14.5981 19.5312 20.707 31.2111 34.1713Z" fill="#EA2D2E"/>
<path fill-rule="evenodd" clip-rule="evenodd" d="M49.7089 61.0563C49.7089 61.0563 51.7288 62.722 47.4842 64.0101C39.4132 66.4557 13.8852 67.1933 6.79475 64.108C4.24769 62.9981 9.02638 61.4599 10.5299 61.135C12.0976 60.7957 12.9928 60.8577 12.9928 60.8577C10.1581 58.8608 -5.32912 64.7795 5.127 66.477C33.6412 71.1006 57.1042 64.3944 49.7089 61.0563Z" fill="#0074BD"/>
<path fill-rule="evenodd" clip-rule="evenodd" d="M19.8272 39.3373C19.8272 39.3373 6.84374 42.4232 15.2296 43.5447C18.7715 44.0188 25.828 43.9097 32.4057 43.3577C37.7799 42.9065 43.1732 41.9414 43.1732 41.9414C43.1732 41.9414 41.2796 42.7541 39.9086 43.69C26.7215 47.1597 1.25117 45.5438 8.58483 41.9965C14.7841 38.9963 19.8272 39.3373 19.8272 39.3373Z" fill="#0074BD"/>
<path fill-rule="evenodd" clip-rule="evenodd" d="M43.1194 52.3605C56.5237 45.3944 50.3254 38.6992 45.9993 39.601C44.9414 39.8219 44.4669 40.0132 44.4669 40.0132C44.4669 40.0132 44.861 39.3955 45.6115 39.1297C54.1699 36.1212 60.7504 48.0061 42.8516 52.713C42.8516 52.713 43.0573 52.5265 43.1194 52.3605Z" fill="#0074BD"/>
<path fill-rule="evenodd" clip-rule="evenodd" d="M35.0395 0C35.0395 0 42.4614 7.42885 27.9979 18.8491C16.3992 28.0137 25.3534 33.2371 27.9938 39.2081C21.2228 33.0973 16.2564 27.7172 19.5876 22.7107C24.4794 15.3626 38.0334 11.7989 35.0395 0Z" fill="#EA2D2E"/>
<path fill-rule="evenodd" clip-rule="evenodd" d="M21.145 71.2431C34.0087 72.0658 53.7677 70.7852 54.2354 64.6956C54.2354 64.6956 53.3365 67.0041 43.6034 68.8358C32.6229 70.9038 19.0767 70.663 11.0454 69.3365C11.0454 69.3365 12.6908 70.6988 21.145 71.2431Z" fill="#0074BD"/>
</svg>
