<svg width="66" height="66" viewBox="0 0 66 66" fill="none" xmlns="http://www.w3.org/2000/svg">
<g clip-path="url(#clip0_14_75)">
<path d="M65.8804 37.1911C68.1952 19.1099 55.3973 2.57954 37.3083 0.269905C19.2193 -2.03973 2.58538 10.7293 0.270516 28.7774C-2.04435 46.8256 10.7535 63.389 28.8425 65.7316C46.9646 68.0412 63.5324 55.2722 65.8804 37.1911Z" fill="#FF6C37"/>
<path d="M45.0135 21.1886L31.0582 35.1124L27.1229 31.186C40.8468 17.4932 42.2026 18.681 45.0135 21.1886Z" fill="white"/>
<path d="M31.0582 35.4424C30.959 35.4424 30.8928 35.4094 30.8267 35.3434L26.8584 31.417C26.7261 31.285 26.7261 31.0871 26.8584 30.9551C40.8137 17.0313 42.2687 18.3511 45.2119 20.9907C45.2781 21.0566 45.3111 21.1226 45.3111 21.2216C45.3111 21.3206 45.2781 21.3866 45.2119 21.4526L31.2566 35.3434C31.2235 35.4094 31.1243 35.4424 31.0582 35.4424ZM27.5859 31.1861L31.0582 34.6505L44.5175 21.2216C42.0703 19.044 40.4169 18.3841 27.5859 31.1861Z" fill="#FF6C37"/>
<path d="M35.0596 39.1048L31.2566 35.3104L45.2119 21.3866C48.9488 25.148 43.3601 31.252 35.0596 39.1048Z" fill="white"/>
<path d="M35.0596 39.4347C34.9604 39.4347 34.8943 39.4018 34.8281 39.3358L31.0251 35.5414C30.959 35.4754 30.959 35.4094 30.959 35.3104C30.959 35.2114 30.9921 35.1454 31.0582 35.0794L45.0135 21.1556C45.1458 21.0236 45.3442 21.0236 45.4765 21.1556C46.3363 21.9475 46.7993 23.0693 46.7662 24.2241C46.7001 27.8866 42.5333 32.5388 35.3242 39.3358C35.2249 39.4018 35.1257 39.4347 35.0596 39.4347ZM31.7196 35.3104C33.836 37.4551 34.7289 38.3129 35.0596 38.6429C40.6153 33.3637 46.0056 27.9526 46.0387 24.2241C46.0717 23.3663 45.741 22.5084 45.1789 21.8485L31.7196 35.3104Z" fill="#FF6C37"/>
<path d="M27.1891 31.2851L30 34.0896C30.0661 34.1556 30.0661 34.2216 30 34.2876C29.9669 34.3206 29.9669 34.3206 29.9338 34.3206L24.1136 35.5744C23.816 35.6074 23.5514 35.4094 23.4853 35.1125C23.4522 34.9475 23.5184 34.7825 23.6176 34.6835L26.9907 31.318C27.0568 31.2521 27.156 31.2191 27.1891 31.2851Z" fill="white"/>
<path d="M24.0144 35.9043C23.5184 35.9043 23.1546 35.5084 23.1546 35.0134C23.1546 34.7825 23.2538 34.5515 23.4192 34.3865L26.7922 31.0211C26.9907 30.8561 27.2552 30.8561 27.4536 31.0211L30.2645 33.8256C30.463 33.9906 30.463 34.2876 30.2645 34.4855C30.1984 34.5515 30.1323 34.5845 30.0331 34.6175L24.2128 35.8713C24.1467 35.8713 24.0805 35.9043 24.0144 35.9043ZM27.0899 31.648L23.8491 34.8815C23.7829 34.9475 23.7499 35.0464 23.816 35.1454C23.8491 35.2444 23.9483 35.2774 24.0475 35.2444L29.5039 34.0566L27.0899 31.648Z" fill="#FF6C37"/>
<path d="M52.388 13.4679C50.2716 11.4222 46.8654 11.4882 44.8151 13.6328C42.7648 15.7775 42.8309 19.143 44.9805 21.1887C46.7331 22.8714 49.3787 23.1683 51.4621 21.9145L47.6922 18.1531L52.388 13.4679Z" fill="white"/>
<path d="M48.6842 23.0034C45.5426 23.0034 42.9963 20.4628 42.9963 17.3282C42.9963 14.1937 45.5426 11.6531 48.6842 11.6531C50.1393 11.6531 51.5613 12.214 52.6195 13.2369C52.6856 13.3029 52.7187 13.3689 52.7187 13.4679C52.7187 13.5668 52.6856 13.6328 52.6195 13.6988L48.1551 18.1531L51.6605 21.6506C51.7928 21.7825 51.7928 21.9805 51.6605 22.1125C51.6274 22.1455 51.6274 22.1455 51.5943 22.1785C50.7345 22.7064 49.7094 23.0034 48.6842 23.0034ZM48.6842 12.346C45.9064 12.346 43.6577 14.5897 43.6907 17.3612C43.6907 20.1328 45.9395 22.3764 48.7173 22.3435C49.4779 22.3435 50.2385 22.1785 50.933 21.8155L47.4607 18.3841C47.3945 18.3181 47.3614 18.2521 47.3614 18.1531C47.3614 18.0541 47.3945 17.9881 47.4607 17.9222L51.892 13.5008C50.9991 12.742 49.8747 12.346 48.6842 12.346Z" fill="#FF6C37"/>
<path d="M52.4872 13.5668L52.4211 13.5009L47.6921 18.1531L51.429 21.8815C51.7928 21.6506 52.1565 21.3866 52.4541 21.0897C54.5706 19.011 54.5706 15.6455 52.4872 13.5668Z" fill="white"/>
<path d="M51.4621 22.2444C51.3629 22.2444 51.2967 22.2115 51.2306 22.1455L47.4607 18.3841C47.3945 18.3181 47.3615 18.2521 47.3615 18.1531C47.3615 18.0541 47.3945 17.9881 47.4607 17.9221L52.1565 13.2369C52.2888 13.1049 52.4872 13.1049 52.6195 13.2369L52.7187 13.3029C54.9344 15.5135 54.9344 19.0769 52.7518 21.3206C52.4211 21.6505 52.0573 21.9475 51.6605 22.1785C51.5613 22.2115 51.4951 22.2444 51.4621 22.2444ZM48.1551 18.1531L51.4951 21.4856C51.7597 21.3206 52.0242 21.0896 52.2227 20.8917C54.1076 19.011 54.2068 15.9424 52.388 13.9627L48.1551 18.1531Z" fill="#FF6C37"/>
<path d="M45.5757 21.7826C44.782 20.9907 43.4923 20.9907 42.6987 21.7826L30.2315 34.2216L32.3149 36.3003L45.5096 24.7521C46.3694 24.0262 46.4355 22.7394 45.708 21.8816C45.6419 21.8486 45.6088 21.8156 45.5757 21.7826Z" fill="white"/>
<path d="M32.2818 36.6302C32.1826 36.6302 32.1164 36.5972 32.0503 36.5312L29.9669 34.4526C29.8346 34.3206 29.8346 34.1226 29.9669 33.9906L42.4341 21.5516C43.3601 20.6277 44.8482 20.6277 45.7741 21.5516C46.7001 22.4754 46.7001 23.9602 45.7741 24.8841C45.7411 24.9171 45.708 24.9501 45.6749 24.9831L32.4802 36.5312C32.4471 36.5972 32.381 36.6302 32.2818 36.6302ZM30.6944 34.2216L32.3148 35.8383L45.2781 24.4881C46.0056 23.8942 46.0718 22.8054 45.4765 22.0795C44.8813 21.3536 43.79 21.2876 43.0624 21.8815C43.0294 21.9145 42.9963 21.9475 42.9302 21.9805L30.6944 34.2216Z" fill="#FF6C37"/>
<path d="M20.6744 48.3764C20.5421 48.4424 20.476 48.5743 20.509 48.7063L21.0712 51.0819C21.2035 51.4119 21.0051 51.8078 20.6413 51.9068C20.3768 52.0058 20.0791 51.9068 19.9138 51.7088L16.2762 48.1124L28.1481 36.2673L32.2487 36.3333L35.0266 39.1048C34.3652 39.6657 30.3638 43.5261 20.6744 48.3764Z" fill="white"/>
<path d="M20.4098 52.2368C20.1453 52.2368 19.8807 52.1378 19.7154 51.9398L16.1108 48.3434C16.0447 48.2774 16.0116 48.2114 16.0116 48.1124C16.0116 48.0134 16.0447 47.9474 16.1108 47.8814L27.9827 36.0363C28.0489 35.9703 28.1481 35.9373 28.2142 35.9373L32.3149 36.0033C32.4141 36.0033 32.4802 36.0363 32.5463 36.1023L35.3242 38.8739C35.3903 38.9398 35.4234 39.0388 35.4234 39.1378C35.4234 39.2368 35.3903 39.3028 35.2911 39.3688L35.0596 39.5667C31.5543 42.6353 26.7922 45.7038 20.8728 48.6403L21.435 50.9829C21.5342 51.4119 21.3358 51.8738 20.9389 52.1048C20.7405 52.2038 20.5752 52.2368 20.4098 52.2368ZM16.7722 48.1124L20.1784 51.4779C20.2776 51.6428 20.476 51.7088 20.6413 51.6098C20.8067 51.5109 20.8728 51.3129 20.7736 51.1479L20.2114 48.7723C20.1453 48.4753 20.2776 48.2114 20.5421 48.0794C26.3954 45.1429 31.1243 42.1073 34.5966 39.1048L32.1495 36.6632L28.3465 36.5972L16.7722 48.1124Z" fill="#FF6C37"/>
<path d="M13.4652 50.95L16.3092 48.1124L20.5421 52.3358L13.7959 51.8738C13.4983 51.8408 13.2999 51.5769 13.333 51.2799C13.333 51.1479 13.366 51.016 13.4652 50.95Z" fill="white"/>
<path d="M20.5421 52.6327L13.7629 52.1708C13.2668 52.1378 12.9361 51.7088 12.9692 51.2139C13.0023 51.0159 13.0684 50.818 13.2337 50.686L16.0777 47.8484C16.21 47.7165 16.4084 47.7165 16.5407 47.8484L20.7736 52.0718C20.8728 52.1708 20.9059 52.3027 20.8397 52.4347C20.7736 52.5667 20.6744 52.6327 20.5421 52.6327ZM16.3092 48.5743L13.6967 51.1809C13.5975 51.2469 13.5975 51.4119 13.6967 51.4779C13.7298 51.5109 13.7629 51.5439 13.829 51.5439L19.6823 51.9398L16.3092 48.5743Z" fill="#FF6C37"/>
<path d="M26.9907 37.785C26.7923 37.785 26.66 37.62 26.66 37.4551C26.66 37.3561 26.693 37.2901 26.7592 37.2241L29.9669 34.0236C30.0992 33.8916 30.2976 33.8916 30.4299 34.0236L32.5133 36.1023C32.6125 36.2013 32.6455 36.3002 32.6125 36.4322C32.5794 36.5312 32.4802 36.6302 32.3479 36.6632L27.0568 37.785C27.0237 37.785 26.9907 37.785 26.9907 37.785ZM30.1984 34.7165L28.0158 36.8942L31.5873 36.1353L30.1984 34.7165Z" fill="#FF6C37"/>
<path d="M32.2487 36.3333L28.6111 37.1252C28.3465 37.1911 28.0819 37.0262 28.0158 36.7622C27.9827 36.5972 28.0158 36.4323 28.1481 36.3003L30.1653 34.2876L32.2487 36.3333Z" fill="white"/>
<path d="M28.5449 37.4551C28.0819 37.4551 27.7182 37.0921 27.7182 36.6302C27.7182 36.3992 27.8174 36.2013 27.9497 36.0363L29.9669 34.0236C30.0992 33.8916 30.2976 33.8916 30.4299 34.0236L32.5132 36.1023C32.6125 36.2013 32.6455 36.3002 32.6125 36.4322C32.5794 36.5312 32.4802 36.6302 32.3479 36.6632L28.7103 37.4551C28.6441 37.4551 28.578 37.4551 28.5449 37.4551ZM30.1984 34.7165L28.4126 36.4982C28.3465 36.5642 28.3465 36.6302 28.3796 36.6962C28.4126 36.7622 28.4788 36.7952 28.578 36.7952L31.6204 36.1353L30.1984 34.7165Z" fill="#FF6C37"/>
<path d="M52.5203 16.7344C52.4542 16.5364 52.2227 16.4374 52.0242 16.5034C51.8258 16.5694 51.7266 16.8003 51.7928 16.9983C51.7928 17.0313 51.8258 17.0643 51.8258 17.0973C52.0242 17.4932 51.9581 17.9882 51.6936 18.3511C51.5613 18.5161 51.5943 18.747 51.7266 18.879C51.892 19.011 52.1235 18.978 52.2557 18.813C52.7518 18.1861 52.851 17.3943 52.5203 16.7344Z" fill="#FF6C37"/>
</g>
<defs>
<clipPath id="clip0_14_75">
<rect width="66" height="66" fill="white"/>
</clipPath>
</defs>
</svg>
