<svg width="80" height="61" viewBox="0 0 80 61" fill="none" xmlns="http://www.w3.org/2000/svg">
<g clip-path="url(#clip0_14_106)">
<path fill-rule="evenodd" clip-rule="evenodd" d="M39.9396 52.8381C17.9369 52.8381 0.10011 41.0829 0.10011 26.5822C0.10011 12.0814 17.9369 0.326202 39.9396 0.326202C61.9423 0.326202 79.779 12.0814 79.779 26.5822C79.779 41.0829 61.9423 52.8381 39.9396 52.8381ZM46.0377 10.5914C29.3137 10.5914 15.7562 18.6277 15.7562 28.541C15.7562 38.4544 29.3137 46.4907 46.0377 46.4907C62.7615 46.4907 75.1035 40.9965 75.1035 28.541C75.1035 16.0895 62.7615 10.5914 46.0377 10.5914Z" fill="url(#paint0_linear_14_106)"/>
<path fill-rule="evenodd" clip-rule="evenodd" d="M60.7735 40.9929C60.7735 40.9929 63.1848 41.7089 64.5856 42.4064C65.0717 42.6484 65.9127 43.1314 66.5193 43.7656C67.1136 44.3867 67.4033 45.016 67.4033 45.016L76.9061 60.7825L61.547 60.7893L54.3646 47.5169C54.3646 47.5169 52.8939 45.0303 51.989 44.3093C51.234 43.7078 50.9122 43.4937 50.1657 43.4937C49.6462 43.4937 46.5165 43.4937 46.5165 43.4937L46.5193 60.7797L32.9282 60.7853V16.6296H60.221C60.221 16.6296 72.6519 16.8502 72.6519 28.4884C72.6519 40.1266 60.7735 40.9929 60.7735 40.9929ZM54.8619 26.2076L46.6339 26.2024L46.6298 33.7105L54.8619 33.7079C54.8619 33.7079 58.674 33.6962 58.674 29.8886C58.674 26.0044 54.8619 26.2076 54.8619 26.2076Z" fill="url(#paint1_linear_14_106)"/>
</g>
<defs>
<linearGradient id="paint0_linear_14_106" x1="0.10011" y1="0.326202" x2="48.356" y2="73.5472" gradientUnits="userSpaceOnUse">
<stop stop-color="#CBCED0"/>
<stop offset="1" stop-color="#84838B"/>
</linearGradient>
<linearGradient id="paint1_linear_14_106" x1="32.9282" y1="16.6296" x2="77.0875" y2="60.6071" gradientUnits="userSpaceOnUse">
<stop stop-color="#276DC3"/>
<stop offset="1" stop-color="#165CAA"/>
</linearGradient>
<clipPath id="clip0_14_106">
<rect width="80" height="61" fill="white"/>
</clipPath>
</defs>
</svg>
