<svg width="73" height="66" viewBox="0 0 73 66" fill="none" xmlns="http://www.w3.org/2000/svg">
<g clip-path="url(#clip0_14_66)">
<path d="M36.5 39.6118C40.0935 39.6118 43.0065 36.6516 43.0065 33C43.0065 29.3484 40.0935 26.3882 36.5 26.3882C32.9065 26.3882 29.9935 29.3484 29.9935 33C29.9935 36.6516 32.9065 39.6118 36.5 39.6118Z" fill="#61DAFB"/>
<path d="M36.5 46.5461C55.7819 46.5461 71.413 40.4813 71.413 33C71.413 25.5187 55.7819 19.4539 36.5 19.4539C17.2181 19.4539 1.58696 25.5187 1.58696 33C1.58696 40.4813 17.2181 46.5461 36.5 46.5461Z" stroke="#61DAFB" stroke-width="3"/>
<path d="M24.9555 39.773C34.5965 56.7418 47.5807 67.4654 53.9565 63.7247C60.3324 59.9841 57.6855 43.1958 48.0445 26.227C38.4035 9.25818 25.4193 -1.46535 19.0435 2.2753C12.6676 6.01595 15.3145 22.8043 24.9555 39.773Z" stroke="#61DAFB" stroke-width="3"/>
<path d="M24.9555 26.227C15.3145 43.1958 12.6676 59.9841 19.0435 63.7247C25.4193 67.4654 38.4035 56.7418 48.0445 39.773C57.6855 22.8043 60.3324 6.01595 53.9565 2.2753C47.5807 -1.46535 34.5965 9.25818 24.9555 26.227Z" stroke="#61DAFB" stroke-width="3"/>
</g>
<defs>
<clipPath id="clip0_14_66">
<rect width="73" height="66" fill="white"/>
</clipPath>
</defs>
</svg>
