<svg width="66" height="75" viewBox="0 0 66 75" fill="none" xmlns="http://www.w3.org/2000/svg">
<g clip-path="url(#clip0_14_55)">
<path d="M65.1603 56.2499C65.6782 55.3441 66 54.3234 66 53.4069V21.5929C66 20.6764 65.6786 19.656 65.1605 18.7501L33 37.5L65.1603 56.2499Z" fill="#00599C"/>
<path d="M35.8578 74.3124L63.1422 58.4055C63.9281 57.9472 64.6425 57.1559 65.1603 56.2499L33 37.5L0.839661 56.2501C1.35752 57.1559 2.07209 57.9474 2.85784 58.4055L30.1422 74.3124C31.7139 75.2289 34.2861 75.2289 35.8578 74.3124Z" fill="#004482"/>
<path d="M65.1606 18.7499C64.6425 17.8438 63.9279 17.0526 63.1422 16.5943L35.8578 0.687382C34.2861 -0.229127 31.7139 -0.229127 30.1422 0.687382L2.85784 16.5943C1.28592 17.5106 0 19.7601 0 21.5929V53.4069C0 54.3234 0.321588 55.3441 0.839667 56.2499L33 37.5L65.1606 18.7499Z" fill="#659AD2"/>
<path d="M33 59.7158C20.8692 59.7158 11 49.7498 11 37.5C11 25.2502 20.8692 15.2842 33 15.2842C40.8277 15.2842 48.128 19.5379 52.0518 26.3852L42.5307 31.9487C40.5669 28.5214 36.9147 26.3921 33 26.3921C26.9345 26.3921 22 31.375 22 37.5C22 43.6248 26.9345 48.6079 33 48.6079C36.9151 48.6079 40.5674 46.4787 42.5314 43.0507L52.0524 48.614C48.1287 55.4619 40.8281 59.7158 33 59.7158Z" fill="white"/>
<path d="M55 36.2657H52.5554V33.7974H50.1112V36.2657H47.6667V38.7341H50.1112V41.2026H52.5554V38.7341H55V36.2657Z" fill="white"/>
<path d="M64.1667 36.2657H61.7221V33.7974H59.2779V36.2657H56.8333V38.7341H59.2779V41.2026H61.7221V38.7341H64.1667V36.2657Z" fill="white"/>
</g>
<defs>
<clipPath id="clip0_14_55">
<rect width="66" height="75" fill="white"/>
</clipPath>
</defs>
</svg>
