<svg width="68" height="68" viewBox="0 0 68 68" fill="none" xmlns="http://www.w3.org/2000/svg">
<g clip-path="url(#clip0_14_153)">
<path d="M68 0H0V68H68V0Z" fill="#F7DF1E"/>
<path d="M45.6787 53.1253C47.0484 55.3617 48.8305 57.0056 51.9822 57.0056C54.6299 57.0056 56.3213 55.6823 56.3213 53.8538C56.3213 51.6627 54.5835 50.8867 51.6692 49.6119L50.0717 48.9265C45.4607 46.9621 42.3975 44.5011 42.3975 39.2986C42.3975 34.5062 46.049 30.858 51.7556 30.858C55.8183 30.858 58.7391 32.2719 60.8438 35.9742L55.8679 39.1691C54.7724 37.2046 53.5905 36.4307 51.7556 36.4307C49.8839 36.4307 48.6977 37.618 48.6977 39.1691C48.6977 41.086 49.885 41.8621 52.6266 43.0494L54.2241 43.7337C59.6533 46.0619 62.7187 48.4354 62.7187 53.7718C62.7187 59.5248 58.1994 62.6766 52.1301 62.6766C46.1957 62.6766 42.3618 59.8486 40.4859 56.1421L45.6787 53.1253ZM23.106 53.679C24.1098 55.4599 25.0229 56.9657 27.2184 56.9657C29.3177 56.9657 30.6421 56.1443 30.6421 52.9504V31.2228H37.0319V53.0368C37.0319 59.6533 33.1527 62.6647 27.4904 62.6647C22.3742 62.6647 19.4113 60.017 17.9045 56.828L23.106 53.679Z" fill="black"/>
</g>
<defs>
<clipPath id="clip0_14_153">
<rect width="68" height="68" fill="white"/>
</clipPath>
</defs>
</svg>
