<svg width="73" height="88" viewBox="0 0 73 88" fill="none" xmlns="http://www.w3.org/2000/svg">
<g clip-path="url(#clip0_14_20)">
<path d="M36.0653 0.000600707C33.0552 0.0145181 30.1807 0.269968 27.6513 0.715321C20.2002 2.02518 18.8474 4.76683 18.8474 9.8229V16.5004H36.4552V18.7263H18.8474H12.2393C7.12199 18.7263 2.64111 21.7869 1.23955 27.6092C-0.377135 34.283 -0.448843 38.4475 1.23955 45.416C2.49118 50.603 5.48024 54.2989 10.5976 54.2989H16.6516V46.294C16.6516 40.511 21.68 35.4099 27.6513 35.4099H45.2387C50.1343 35.4099 54.0426 31.3988 54.0426 26.5065V9.8229C54.0426 5.07465 50.017 1.50778 45.2387 0.715321C42.2139 0.214298 39.0754 -0.0133168 36.0653 0.000600707ZM26.5431 5.37121C28.3619 5.37121 29.8472 6.87328 29.8472 8.72019C29.8472 10.5605 28.3619 12.0487 26.5431 12.0487C24.7178 12.0487 23.2391 10.5605 23.2391 8.72019C23.2391 6.87328 24.7178 5.37121 26.5431 5.37121Z" fill="url(#paint0_linear_14_20)"/>
<path d="M56.2384 18.7263V26.5065C56.2384 32.5384 51.0992 37.6153 45.2387 37.6153H27.6513C22.8339 37.6153 18.8474 41.718 18.8474 46.5187V63.2023C18.8474 67.9505 22.9968 70.7434 27.6513 72.1056C33.225 73.7364 38.5698 74.0311 45.2387 72.1056C49.6715 70.8285 54.0426 68.2583 54.0426 63.2023V56.5247H36.4553V54.2989H54.0426H62.8465C67.9639 54.2989 69.8708 50.7471 71.6504 45.4159C73.4888 39.9276 73.4105 34.6497 71.6504 27.6092C70.3858 22.54 67.9704 18.7263 62.8465 18.7263H56.2384ZM46.3469 60.9764C48.1721 60.9764 49.6509 62.4646 49.6509 64.305C49.6509 66.1519 48.1721 67.654 46.3469 67.654C44.5281 67.654 43.0428 66.1519 43.0428 64.305C43.0428 62.4646 44.5281 60.9764 46.3469 60.9764Z" fill="url(#paint1_linear_14_20)"/>
<path opacity="0.44382" d="M36.655 88C49.6867 88 60.251 85.9616 60.251 83.4471C60.251 80.9327 49.6867 78.8943 36.655 78.8943C23.6233 78.8943 13.0591 80.9327 13.0591 83.4471C13.0591 85.9616 23.6233 88 36.655 88Z" fill="url(#paint2_radial_14_20)"/>
</g>
<defs>
<linearGradient id="paint0_linear_14_20" x1="-2.19357e-07" y1="-1.89608e-07" x2="40.4324" y2="34.6251" gradientUnits="userSpaceOnUse">
<stop stop-color="#5A9FD4"/>
<stop offset="1" stop-color="#306998"/>
</linearGradient>
<linearGradient id="paint1_linear_14_20" x1="45.9237" y1="63.7436" x2="31.4528" y2="43.3648" gradientUnits="userSpaceOnUse">
<stop stop-color="#FFD43B"/>
<stop offset="1" stop-color="#FFE873"/>
</linearGradient>
<radialGradient id="paint2_radial_14_20" cx="0" cy="0" r="1" gradientUnits="userSpaceOnUse" gradientTransform="translate(36.655 83.4471) rotate(-90) scale(4.55286 20.1111)">
<stop stop-color="#B8B8B8" stop-opacity="0.498039"/>
<stop offset="1" stop-color="#7F7F7F" stop-opacity="0"/>
</radialGradient>
<clipPath id="clip0_14_20">
<rect width="73" height="88" fill="white"/>
</clipPath>
</defs>
</svg>
