<svg width="80" height="58" viewBox="0 0 80 58" fill="none" xmlns="http://www.w3.org/2000/svg">
<g clip-path="url(#clip0_14_101)">
<path d="M10.9957 0H80V47.0142C76.2944 50.6876 72.5766 54.3489 68.8502 58H0V10.8455C3.65022 7.21664 7.3316 3.61516 10.9957 0Z" fill="#41CD52"/>
<path d="M21.1896 12.204C23.8095 10.4913 27.0494 10.0585 30.1299 10.0859C33.0632 10.1218 36.142 10.6299 38.5732 12.3597C40.3394 13.5864 41.4875 15.4804 42.2528 17.4394C43.4909 20.6559 43.8546 24.129 43.8961 27.5474C43.9013 30.9898 43.7437 34.5075 42.5905 37.7873C41.8182 40.0183 40.3481 41.9995 38.4087 43.3751C39.8043 45.6096 41.2277 47.8269 42.6234 50.0614C40.8693 50.8604 39.1204 51.6645 37.3645 52.4601C35.8701 50.0237 34.3827 47.5823 32.8831 45.1493C30.8554 45.4778 28.781 45.4522 26.7429 45.2298C24.3013 44.9406 21.813 44.2049 19.929 42.5813C18.4814 41.3426 17.5723 39.6094 16.9507 37.8472C15.9325 34.8667 15.6589 31.6947 15.6121 28.5672C15.5879 25.1864 15.8061 21.7526 16.8381 18.5087C17.6364 16.0689 18.9576 13.6343 21.1896 12.204Z" fill="white"/>
<path d="M50.9316 12.0945C52.7671 12.0928 54.6026 12.0928 56.4381 12.0945C56.4433 14.4932 56.4364 16.8902 56.4416 19.2889C58.7879 19.2923 61.1342 19.2889 63.4805 19.2906C63.4407 20.8475 63.3974 22.4045 63.3524 23.9614C61.0078 23.9665 58.6649 23.9597 56.3203 23.9648C56.3255 27.8965 56.3082 31.8282 56.329 35.7599C56.374 36.836 56.3498 37.9721 56.8294 38.9661C57.1792 39.7326 58.1212 39.9293 58.8883 39.955C60.3342 39.9499 61.7784 39.866 63.2242 39.8404C63.3126 41.2707 63.3974 42.7027 63.4805 44.1331C60.6043 44.6104 57.5862 45.1819 54.729 44.2888C53.5255 43.9363 52.4035 43.1476 51.9152 41.9722C51.0407 39.9721 50.9697 37.7462 50.9316 35.599C50.9281 31.7204 50.9316 27.8435 50.9299 23.9648C49.6502 23.9614 48.3706 23.9665 47.0909 23.9614C47.0875 22.4062 47.0875 20.8492 47.0909 19.2923C48.3706 19.2872 49.6485 19.294 50.9281 19.2889C50.9333 16.8902 50.9264 14.4932 50.9316 12.0945Z" fill="white"/>
<path d="M27.7939 15.0047C29.5758 14.7755 31.4459 14.8371 33.1325 15.5026C34.4987 16.0364 35.6589 17.0818 36.2719 18.406C37.2121 20.413 37.5723 22.6286 37.7541 24.8168C37.9515 27.7288 37.9238 30.6682 37.5169 33.563C37.2312 35.2859 36.8242 37.1012 35.6433 38.4597C34.445 39.8233 32.5974 40.4084 30.8242 40.5453C28.9541 40.6804 26.9818 40.5453 25.2935 39.671C24.3082 39.1526 23.4719 38.3399 22.9835 37.3442C22.3913 36.1517 22.0658 34.8496 21.8372 33.5459C21.148 29.4124 20.9818 25.1351 21.9238 21.0255C22.3117 19.4754 22.8762 17.8842 24.0225 16.7157C25.0199 15.7148 26.4087 15.1981 27.7939 15.0047Z" fill="#41CD52"/>
</g>
<defs>
<clipPath id="clip0_14_101">
<rect width="80" height="58" fill="white"/>
</clipPath>
</defs>
</svg>
